<svg width="47" height="32" viewBox="0 0 47 32" fill="none" xmlns="http://www.w3.org/2000/svg">
<path fill-rule="evenodd" clip-rule="evenodd" d="M0 0.594332C0 0.266091 0.266092 0 0.594333 0C4.9392 0 8.7033 2.48655 10.5412 6.11423C10.8527 6.72895 12.4653 6.75859 12.7934 6.15258C14.777 2.48855 18.6548 0 23.1139 0C27.632 0 31.5534 2.55481 33.5122 6.29859C33.8236 6.89385 35.2122 6.86814 35.5068 6.26433C37.316 2.55531 41.1237 0 45.5283 0C45.8565 0 46.1226 0.266091 46.1226 0.594332V27.0769C46.1226 29.7959 43.9185 32 41.1995 32H4.92307C2.20414 32 0 29.7959 0 27.0769V0.594332ZM31.1388 28.9123C31.4787 28.9123 31.7542 28.6368 31.7542 28.2969V11.728C31.7542 6.9561 27.8858 3.08771 23.1139 3.08771C18.342 3.08771 14.4736 6.9561 14.4736 11.728V28.2969C14.4736 28.6368 14.7491 28.9123 15.089 28.9123H31.1388Z" fill="black"/>
</svg>
